<?xml version="1.0" encoding="UTF-8" standalone="no"?>
<!DOCTYPE svg PUBLIC "-//W3C//DTD SVG 1.1//EN" "http://www.w3.org/Graphics/SVG/1.1/DTD/svg11.dtd">
<svg width="100%" height="100%" viewBox="0 0 100 100" version="1.1" xmlns="http://www.w3.org/2000/svg" xmlns:xlink="http://www.w3.org/1999/xlink" xml:space="preserve" xmlns:serif="http://www.serif.com/" style="fill-rule:evenodd;clip-rule:evenodd;stroke-linejoin:round;stroke-miterlimit:2;">
    <g transform="matrix(1.04345,0,0,1.03697,-2.20058,-2.25848)">
        <path d="M97.945,13.558C97.945,7.277 92.877,2.178 86.635,2.178L13.419,2.178C7.177,2.178 2.109,7.277 2.109,13.558L2.109,87.232C2.109,93.513 7.177,98.613 13.419,98.613L86.635,98.613C92.877,98.613 97.945,93.513 97.945,87.232L97.945,13.558Z" style="fill:white;"/>
        <path d="M97.945,13.558C97.945,7.277 92.877,2.178 86.635,2.178L13.419,2.178C7.177,2.178 2.109,7.277 2.109,13.558L2.109,87.232C2.109,93.513 7.177,98.613 13.419,98.613L86.635,98.613C92.877,98.613 97.945,93.513 97.945,87.232L97.945,13.558ZM92.195,13.558L92.195,87.232C92.195,90.32 89.704,92.827 86.635,92.827C86.635,92.827 13.419,92.827 13.419,92.827C10.35,92.827 7.859,90.32 7.859,87.232L7.859,13.558C7.859,10.471 10.35,7.964 13.419,7.964L86.635,7.964C89.704,7.964 92.195,10.471 92.195,13.558Z"/>
    </g>
    <g transform="matrix(0.798667,0,0,0.798667,10.0667,10.0589)">
        <path d="M89,46.3L70.2,29.6L64.9,35.6L81.2,50L64.9,64.4L70.2,70.4L89,53.7C90.076,52.751 90.693,51.384 90.693,49.95C90.693,48.516 90.076,47.149 89,46.2L89,46.3Z" style="fill-rule:nonzero;"/>
        <path d="M11,53.7L29.8,70.4L35.1,64.4L18.8,50L35.1,35.6L29.8,29.6L11,46.3C9.924,47.249 9.307,48.616 9.307,50.05C9.307,51.484 9.924,52.851 11,53.8L11,53.7Z" style="fill-rule:nonzero;"/>
        <path d="M57.7,12.6C55.562,12.172 53.448,13.566 53,15.7L39.2,82.7C38.772,84.838 40.166,86.952 42.3,87.4L43.1,87.4C44.957,87.401 46.582,86.109 47,84.3L60.8,17.3C61.228,15.162 59.834,13.048 57.7,12.6Z" style="fill-rule:nonzero;"/>
    </g>
</svg>
