<?xml version="1.0" encoding="UTF-8" standalone="no"?>
<!DOCTYPE svg PUBLIC "-//W3C//DTD SVG 1.1//EN" "http://www.w3.org/Graphics/SVG/1.1/DTD/svg11.dtd">
<svg width="100%" height="100%" viewBox="0 0 100 100" version="1.1" xmlns="http://www.w3.org/2000/svg" xmlns:xlink="http://www.w3.org/1999/xlink" xml:space="preserve" xmlns:serif="http://www.serif.com/" style="fill-rule:evenodd;clip-rule:evenodd;stroke-linejoin:round;stroke-miterlimit:2;">
    <path d="M62.77,35.077C53.528,38.54 48.928,48.099 52.092,55.415C52.226,55.726 52.377,56.03 52.542,56.325C53.064,57.277 53.733,58.14 54.526,58.881C59.045,63.144 67.286,63.543 74.224,59.454C86.103,52.455 93.672,37.444 93.672,37.444C93.672,37.444 76.754,29.831 62.77,35.077ZM73.416,58.082C69.3,60.644 64.29,61.356 59.623,60.041C58.108,59.566 56.719,58.757 55.558,57.674C56.766,56.326 58.072,55.067 59.463,53.909C63.677,50.381 68.581,47.772 73.86,46.246C74.577,46.077 75.087,45.432 75.087,44.696C75.087,43.823 74.368,43.104 73.494,43.104C73.371,43.104 73.248,43.118 73.128,43.146C67.405,44.754 62.088,47.559 57.53,51.373C56.162,52.508 54.872,53.734 53.671,55.043C53.63,54.958 53.592,54.871 53.554,54.784C52.334,51.782 52.409,48.406 53.761,45.461C55.606,41.32 59.063,38.105 63.328,36.566C66.661,35.372 70.181,34.785 73.721,34.833C79.77,34.959 85.753,36.116 91.413,38.255C89.165,42.184 82.558,52.693 73.416,58.082Z" style="fill-rule:nonzero;"/>
    <path d="M95.173,36.915C95.027,36.505 94.72,36.172 94.324,35.993C93.611,35.673 76.643,28.173 62.211,33.585C57.13,35.43 53.016,39.273 50.83,44.217C49.133,47.962 49.06,52.248 50.629,56.049C50.869,56.605 51.151,57.141 51.472,57.654C52.048,58.572 52.744,59.408 53.543,60.14C55.011,61.471 56.749,62.469 58.637,63.069C60.392,63.631 62.224,63.911 64.067,63.9C67.93,63.865 71.715,62.803 75.032,60.824C87.173,53.67 94.774,38.793 95.094,38.162C95.289,37.775 95.318,37.324 95.173,36.915ZM59.623,60.041C58.108,59.566 56.719,58.757 55.558,57.674C54.772,56.921 54.132,56.029 53.671,55.043C53.63,54.958 53.592,54.871 53.554,54.784C52.334,51.782 52.409,48.406 53.761,45.461C55.606,41.32 59.063,38.105 63.328,36.566C66.661,35.372 70.181,34.785 73.721,34.833C79.77,34.959 85.753,36.116 91.413,38.255C89.165,42.184 82.558,52.693 73.416,58.082C69.3,60.644 64.29,61.356 59.623,60.041Z" style="fill-rule:nonzero;"/>
    <path d="M73.86,46.246C68.581,47.772 63.677,50.381 59.463,53.909C58.072,55.067 56.766,56.326 55.558,57.674C55.203,58.07 54.859,58.472 54.526,58.881C54.185,59.294 53.86,59.713 53.543,60.14C49.134,66.064 46.73,73.241 46.354,81.592L46.354,81.607C46.305,82.694 46.29,83.802 46.311,84.93C46.322,85.434 46.337,85.939 46.36,86.451C46.4,87.312 45.734,88.056 44.874,88.112C44.864,88.114 44.853,88.115 44.842,88.115L44.749,88.115C44.739,88.115 44.73,88.114 44.72,88.112C43.893,88.086 43.218,87.42 43.179,86.594C43.153,86.033 43.135,85.477 43.129,84.93C43.109,83.817 43.124,82.729 43.17,81.674C43.293,78.527 43.73,75.4 44.473,72.339C45.756,67.009 48.14,62.007 51.472,57.654C51.824,57.195 52.179,56.753 52.543,56.325C52.912,55.88 53.29,55.453 53.671,55.043C54.873,53.734 56.162,52.508 57.53,51.373C62.088,47.559 67.405,44.754 73.128,43.146C73.248,43.118 73.371,43.104 73.494,43.104C74.368,43.104 75.087,43.823 75.087,44.696C75.087,45.432 74.577,46.077 73.861,46.246L73.86,46.246Z" style="fill-rule:nonzero;"/>
    <path d="M30.846,46.584C19.991,42.513 6.856,48.424 6.856,48.424C6.856,48.424 12.733,60.073 21.954,65.508C27.209,68.602 33.42,68.387 36.979,65.305C37.809,64.594 38.485,63.721 38.965,62.74C39.026,62.621 39.082,62.499 39.137,62.374C41.591,56.694 38.02,49.273 30.846,46.584ZM35.141,58.963C31.561,55.965 27.384,53.764 22.887,52.504C22.768,52.476 22.647,52.462 22.524,52.462C21.651,52.462 20.933,53.18 20.933,54.053C20.933,54.787 21.441,55.431 22.155,55.601C26.208,56.777 29.973,58.784 33.208,61.495C34.176,62.304 35.089,63.177 35.941,64.107C35.13,64.79 34.191,65.306 33.179,65.625C29.653,66.614 25.869,66.073 22.762,64.136C16.001,60.152 11.032,52.498 9.13,49.239C12.855,47.886 22.317,45.086 30.288,48.075C33.509,49.235 36.12,51.661 37.514,54.787C38.47,56.883 38.571,59.271 37.796,61.44C36.96,60.563 36.074,59.736 35.141,58.963L35.141,58.963Z" style="fill-rule:nonzero;"/>
    <path d="M40.445,53.539C38.709,49.611 35.441,46.558 31.405,45.092C20.064,40.84 6.766,46.72 6.205,46.97C5.809,47.15 5.502,47.483 5.356,47.892C5.21,48.301 5.239,48.753 5.437,49.14C5.684,49.634 11.631,61.274 21.146,66.881C23.777,68.447 26.778,69.288 29.84,69.318C31.308,69.326 32.767,69.101 34.164,68.652C35.55,68.21 36.836,67.502 37.95,66.567C38.783,65.862 39.491,65.022 40.047,64.084C40.253,63.736 40.436,63.375 40.597,63.005C41.855,59.965 41.8,56.537 40.445,53.539ZM37.796,61.44C37.759,61.542 37.718,61.644 37.674,61.743C37.285,62.653 36.692,63.462 35.941,64.107C35.13,64.79 34.191,65.306 33.179,65.625C29.653,66.614 25.869,66.073 22.762,64.136C16.001,60.152 11.032,52.498 9.13,49.239C12.855,47.886 22.317,45.086 30.288,48.075C33.509,49.235 36.12,51.661 37.514,54.787C38.47,56.883 38.571,59.271 37.796,61.44Z" style="fill-rule:nonzero;"/>
    <path d="M46.453,84.93C46.45,85.477 46.436,86.03 46.41,86.594C46.374,87.419 45.7,88.085 44.874,88.112C44.864,88.114 44.853,88.115 44.842,88.115L44.749,88.115C44.735,88.115 44.72,88.112 44.706,88.112C43.851,88.049 43.192,87.308 43.228,86.451C43.252,85.94 43.266,85.431 43.266,84.93C43.281,83.82 43.249,82.738 43.17,81.679L43.17,81.674C42.889,76.247 41.079,71.009 37.95,66.567C37.642,66.137 37.318,65.716 36.979,65.305C36.651,64.895 36.305,64.495 35.941,64.107C35.089,63.177 34.176,62.304 33.208,61.495C29.973,58.784 26.208,56.777 22.155,55.601C21.441,55.431 20.933,54.787 20.933,54.053C20.933,53.18 21.651,52.462 22.524,52.462C22.647,52.462 22.768,52.476 22.887,52.504C27.384,53.764 31.561,55.965 35.141,58.963C36.074,59.736 36.96,60.563 37.796,61.44C38.189,61.85 38.579,62.283 38.965,62.74C39.332,63.168 39.692,63.615 40.047,64.084C41.939,66.59 43.432,69.374 44.473,72.336L44.473,72.339C45.514,75.324 46.147,78.437 46.354,81.592L46.354,81.612C46.43,82.68 46.465,83.785 46.453,84.93Z" style="fill-rule:nonzero;"/>
</svg>
