<?xml version="1.0" encoding="UTF-8" standalone="no"?>
<!DOCTYPE svg PUBLIC "-//W3C//DTD SVG 1.1//EN" "http://www.w3.org/Graphics/SVG/1.1/DTD/svg11.dtd">
<svg width="100%" height="100%" viewBox="0 0 64 64" version="1.1" xmlns="http://www.w3.org/2000/svg" xmlns:xlink="http://www.w3.org/1999/xlink" xml:space="preserve" xmlns:serif="http://www.serif.com/" style="fill-rule:evenodd;clip-rule:evenodd;stroke-linejoin:round;stroke-miterlimit:2;">
    <g transform="matrix(0.64,0,0,0.64,0,0)">
        <g transform="matrix(2.25522,0,0,1.21382,-104.227,-3.2533)">
            <path d="M68.386,2.68C56.15,2.68 46.216,21.138 46.216,43.872C46.216,66.607 56.15,85.065 68.386,85.065L68.386,2.68Z"/>
        </g>
        <g transform="matrix(-2.25522,0,0,1.21382,204.227,-3.2533)">
            <path d="M68.386,2.68C56.15,2.68 46.216,21.138 46.216,43.872C46.216,66.607 56.15,85.065 68.386,85.065L68.386,2.68Z" style="fill:white;"/>
        </g>
        <g transform="matrix(1.08913,0,0,1.08536,-8.92129,-2.46494)">
            <path d="M54.1,2.271C79.437,2.271 100.008,22.913 100.008,48.339C100.008,73.764 79.437,94.406 54.1,94.406C28.762,94.406 8.191,73.764 8.191,48.339C8.191,22.913 28.762,2.271 54.1,2.271ZM54.1,9.949C75.214,9.949 92.357,27.151 92.357,48.339C92.357,69.526 75.214,86.728 54.1,86.728C32.985,86.728 15.843,69.526 15.843,48.339C15.843,27.151 32.985,9.949 54.1,9.949Z"/>
        </g>
    </g>
</svg>
