<?xml version="1.0" encoding="UTF-8" standalone="no"?>
<!DOCTYPE svg PUBLIC "-//W3C//DTD SVG 1.1//EN" "http://www.w3.org/Graphics/SVG/1.1/DTD/svg11.dtd">
<svg width="100%" height="100%" viewBox="0 0 48 48" version="1.1" xmlns="http://www.w3.org/2000/svg" xmlns:xlink="http://www.w3.org/1999/xlink" xml:space="preserve" xmlns:serif="http://www.serif.com/" style="fill-rule:evenodd;clip-rule:evenodd;stroke-linejoin:round;stroke-miterlimit:2;">
    <path id="Color1" d="M40,6L8,6C5.8,6 4,7.8 4,10L4,38C4,40.2 5.8,42 8,42L40,42C42.2,42 44,38.2 44,36L44,10C44,7.8 42.2,6 40,6ZM40,38L8,38L8,10L40,10L40,38Z"/>
    <g id="Color2">
        <rect x="12" y="30" width="16" height="4"/>
        <rect x="12" y="14" width="16" height="4"/>
        <rect x="32" y="30" width="4" height="4"/>
        <rect x="32" y="14" width="4" height="4"/>
        <rect x="12" y="22" width="4" height="4"/>
        <rect x="20" y="22" width="16" height="4"/>
    </g>
</svg>
